<svg xmlns="http://www.w3.org/2000/svg" xmlns:cc="http://web.resource.org/cc/" xmlns:svg="http://www.w3.org/2000/svg" xmlns:xlink="http://www.w3.org/1999/xlink" id="svg2" width="523.927" height="360.581" version="1.0"><defs id="defs4"><linearGradient id="linearGradient20052"><stop style="stop-color:#fff;stop-opacity:1" id="stop20054" offset="0"/><stop style="stop-color:#fff;stop-opacity:0" id="stop20056" offset="1"/></linearGradient><marker id="Arrow2Lend" orient="auto" refX="0" refY="0" style="overflow:visible"><path id="path8071" style="font-size:12px;fill-rule:evenodd;stroke-width:.625;stroke-linejoin:round" d="M 8.7185878,4.0337352 L -2.2072895,0.016013256 L 8.7185884,-4.0017078 C 6.97309,-1.6296469 6.9831476,1.6157441 8.7185878,4.0337352 z" transform="matrix(-1.1,0,0,-1.1,-1.1,0)"/></marker><marker id="Arrow2Mend" orient="auto" refX="0" refY="0" style="overflow:visible"><path id="path8077" style="font-size:12px;fill-rule:evenodd;stroke-width:.625;stroke-linejoin:round" d="M 8.7185878,4.0337352 L -2.2072895,0.016013256 L 8.7185884,-4.0017078 C 6.97309,-1.6296469 6.9831476,1.6157441 8.7185878,4.0337352 z" transform="scale(-0.6,-0.6)"/></marker><marker id="Arrow1Mend" orient="auto" refX="0" refY="0" style="overflow:visible"><path id="path8059" d="M 0,0 L 5,-5 L -12.5,0 L 5,5 L 0,0 z" style="fill-rule:evenodd;stroke:#000;stroke-width:1pt;marker-start:none" transform="matrix(-0.4,0,0,-0.4,-4,0)"/></marker><marker id="Arrow1Lend" orient="auto" refX="0" refY="0" style="overflow:visible"><path id="path8053" d="M 0,0 L 5,-5 L -12.5,0 L 5,5 L 0,0 z" style="fill-rule:evenodd;stroke:#000;stroke-width:1pt;marker-start:none" transform="matrix(-0.8,0,0,-0.8,-10,0)"/></marker><radialGradient id="radialGradient20058" cx="312.166" cy="344.113" r="222.205" fx="312.166" fy="344.113" gradientTransform="matrix(1.1837223,0,0,0.8157785,-98.010423,78.040263)" gradientUnits="userSpaceOnUse" xlink:href="#linearGradient20052"/></defs><metadata id="metadata7"/><g id="layer1" transform="translate(-9.5434914,-178.47008)"><rect style="fill:url(#radialGradient20058);fill-opacity:1;stroke:none;stroke-width:1.79999995;stroke-miterlimit:4;stroke-dasharray:none;stroke-opacity:1" id="rect5094" width="523.927" height="360.581" x="9.543" y="178.47"/><path style="fill:#53a012;fill-opacity:1;stroke:#414141;stroke-width:1.79999995;stroke-miterlimit:4;stroke-dasharray:none;stroke-opacity:.77134645" id="path6101" d="M 101.01525 82.615738 A 23.233509 21.213203 0 1 1 54.548237,82.615738 A 23.233509 21.213203 0 1 1 101.01525 82.615738 z" transform="matrix(0.7893459,0,0,0.8645217,129.84405,287.12389)"/><text xml:space="preserve" style="font-size:13px;font-style:normal;font-weight:400;fill:#000;fill-opacity:1;stroke:none;stroke-width:1px;stroke-linecap:butt;stroke-linejoin:miter;stroke-opacity:1;font-family:Bitstream Vera Sans" id="text7072" x="58.911" y="362.588"><tspan id="tspan7074" x="58.911" y="362.588">data:log:website</tspan></text><path style="fill:none;fill-rule:evenodd;stroke:#000;stroke-width:1px;stroke-linecap:butt;stroke-linejoin:miter;stroke-opacity:1" id="path8264" d="M 181.50794,339.42964 L 181.50794,339.42964"/><g id="g9246" transform="matrix(0.6827629,0,0,0.6946598,92.308279,57.784642)"><path id="path2160" d="M 101.01525 82.615738 A 23.233509 21.213203 0 1 1 54.548237,82.615738 A 23.233509 21.213203 0 1 1 101.01525 82.615738 z" transform="matrix(0.7893459,0,0,0.8645217,265.86964,153.62415)" style="fill:#9512a0;fill-opacity:1;stroke:#414141;stroke-width:1.79999995;stroke-miterlimit:4;stroke-dasharray:none;stroke-opacity:.77134645"/><text id="text4103" x="351.51" y="230.098" style="font-size:13px;font-style:normal;font-weight:400;fill:#000;fill-opacity:1;stroke:none;stroke-width:1px;stroke-linecap:butt;stroke-linejoin:miter;stroke-opacity:1;font-family:Bitstream Vera Sans" xml:space="preserve"><tspan id="tspan4105" x="351.51" y="230.098">daily-log-2009-12-03_gz</tspan></text></g><g id="g9241" transform="matrix(0.6827629,0,0,0.6946598,92.308279,57.784642)"><path id="path6084" d="M 101.01525 82.615738 A 23.233509 21.213203 0 1 1 54.548237,82.615738 A 23.233509 21.213203 0 1 1 101.01525 82.615738 z" transform="matrix(0.7893459,0,0,0.8645217,265.86964,200.03609)" style="fill:#9512a0;fill-opacity:1;stroke:#414141;stroke-width:1.79999995;stroke-miterlimit:4;stroke-dasharray:none;stroke-opacity:.77134645"/><text id="text6086" x="351.51" y="276.51" style="font-size:13px;font-style:normal;font-weight:400;fill:#000;fill-opacity:1;stroke:none;stroke-width:1px;stroke-linecap:butt;stroke-linejoin:miter;stroke-opacity:1;font-family:Bitstream Vera Sans" xml:space="preserve"><tspan id="tspan6088" x="351.51" y="276.51">daily-log-2009-12-03_gz</tspan></text></g><g id="g6090" transform="matrix(0.6827629,0,0,0.6946598,90.91313,122.26566)"><path id="path6092" d="M 101.01525 82.615738 A 23.233509 21.213203 0 1 1 54.548237,82.615738 A 23.233509 21.213203 0 1 1 101.01525 82.615738 z" transform="matrix(0.7893459,0,0,0.8645217,267.91303,153.62415)" style="fill:#9512a0;fill-opacity:1;stroke:#414141;stroke-width:1.79999995;stroke-miterlimit:4;stroke-dasharray:none;stroke-opacity:.77134645"/><text id="text6094" x="353.553" y="230.098" style="font-size:13px;font-style:normal;font-weight:400;fill:#000;fill-opacity:1;stroke:none;stroke-width:1px;stroke-linecap:butt;stroke-linejoin:miter;stroke-opacity:1;font-family:Bitstream Vera Sans" xml:space="preserve"><tspan id="tspan6096" x="353.553" y="230.098">daily-log-2009-12-03_gz</tspan></text></g><rect style="fill:none;fill-opacity:1;stroke:#0c0c0c;stroke-width:.68868566;stroke-miterlimit:15;stroke-dasharray:.68868566,.68868566;stroke-dashoffset:0;stroke-opacity:1" id="rect9275" width="154.597" height="108.168" x="292.848" y="189.601"/><path style="fill:#9512a0;fill-opacity:1;stroke:#414141;stroke-width:1.79999995;stroke-miterlimit:4;stroke-dasharray:none;stroke-opacity:.77134645" id="path10265" d="M 101.01525 82.615738 A 23.233509 21.213203 0 1 1 54.548237,82.615738 A 23.233509 21.213203 0 1 1 101.01525 82.615738 z" transform="matrix(0.5389361,0,0,0.6005485,273.8342,277.17974)"/><text transform="scale(0.9913999,1.0086747)" xml:space="preserve" style="font-size:8.95291328px;font-style:normal;font-weight:400;fill:#000;fill-opacity:1;stroke:none;stroke-width:1px;stroke-linecap:butt;stroke-linejoin:miter;stroke-opacity:1;font-family:Bitstream Vera Sans" id="text10267" x="335.189" y="327.462"><tspan id="tspan10269" x="335.189" y="327.462">daily-log-2009-12-04_gz</tspan></text><g id="g10271" transform="matrix(0.6827629,0,0,0.6946598,92.308279,170.46322)"><path id="path10273" d="M 101.01525 82.615738 A 23.233509 21.213203 0 1 1 54.548237,82.615738 A 23.233509 21.213203 0 1 1 101.01525 82.615738 z" transform="matrix(0.7893459,0,0,0.8645217,265.86964,200.03609)" style="fill:#9512a0;fill-opacity:1;stroke:#414141;stroke-width:1.79999995;stroke-miterlimit:4;stroke-dasharray:none;stroke-opacity:.77134645"/><text id="text10275" x="351.51" y="276.51" style="font-size:13px;font-style:normal;font-weight:400;fill:#000;fill-opacity:1;stroke:none;stroke-width:1px;stroke-linecap:butt;stroke-linejoin:miter;stroke-opacity:1;font-family:Bitstream Vera Sans" xml:space="preserve"><tspan id="tspan10277" x="351.51" y="276.51">daily-log-2009-12-04_gz</tspan></text></g><g id="g10279" transform="matrix(0.6827629,0,0,0.6946598,90.91313,234.94424)"><path id="path10281" d="M 101.01525 82.615738 A 23.233509 21.213203 0 1 1 54.548237,82.615738 A 23.233509 21.213203 0 1 1 101.01525 82.615738 z" transform="matrix(0.7893459,0,0,0.8645217,267.91303,153.62415)" style="fill:#9512a0;fill-opacity:1;stroke:#414141;stroke-width:1.79999995;stroke-miterlimit:4;stroke-dasharray:none;stroke-opacity:.77134645"/><text id="text10283" x="353.553" y="230.098" style="font-size:13px;font-style:normal;font-weight:400;fill:#000;fill-opacity:1;stroke:none;stroke-width:1px;stroke-linecap:butt;stroke-linejoin:miter;stroke-opacity:1;font-family:Bitstream Vera Sans" xml:space="preserve"><tspan id="tspan10285" x="353.553" y="230.098">daily-log-2009-12-04_gz</tspan></text></g><rect style="fill:none;fill-opacity:1;stroke:#0c0c0c;stroke-width:.68868566;stroke-miterlimit:15;stroke-dasharray:.68868566,.68868566;stroke-dashoffset:0;stroke-opacity:1" id="rect10287" width="154.597" height="108.168" x="292.848" y="302.279"/><g id="g10291" transform="matrix(0.6827629,0,0,0.6946598,92.308279,283.1418)"><path id="path10293" d="M 101.01525 82.615738 A 23.233509 21.213203 0 1 1 54.548237,82.615738 A 23.233509 21.213203 0 1 1 101.01525 82.615738 z" transform="matrix(0.7893459,0,0,0.8645217,265.86964,153.62415)" style="fill:#9512a0;fill-opacity:1;stroke:#414141;stroke-width:1.79999995;stroke-miterlimit:4;stroke-dasharray:none;stroke-opacity:.77134645"/><text id="text10295" x="351.51" y="230.098" style="font-size:13px;font-style:normal;font-weight:400;fill:#000;fill-opacity:1;stroke:none;stroke-width:1px;stroke-linecap:butt;stroke-linejoin:miter;stroke-opacity:1;font-family:Bitstream Vera Sans" xml:space="preserve"><tspan id="tspan10297" x="351.51" y="230.098">daily-log-2009-12-05_gz</tspan></text></g><g id="g10299" transform="matrix(0.6827629,0,0,0.6946598,92.308279,283.1418)"><path id="path10301" d="M 101.01525 82.615738 A 23.233509 21.213203 0 1 1 54.548237,82.615738 A 23.233509 21.213203 0 1 1 101.01525 82.615738 z" transform="matrix(0.7893459,0,0,0.8645217,265.86964,200.03609)" style="fill:#9512a0;fill-opacity:1;stroke:#414141;stroke-width:1.79999995;stroke-miterlimit:4;stroke-dasharray:none;stroke-opacity:.77134645"/><text id="text10303" x="351.51" y="276.51" style="font-size:13px;font-style:normal;font-weight:400;fill:#000;fill-opacity:1;stroke:none;stroke-width:1px;stroke-linecap:butt;stroke-linejoin:miter;stroke-opacity:1;font-family:Bitstream Vera Sans" xml:space="preserve"><tspan id="tspan10305" x="351.51" y="276.51">daily-log-2009-12-05_gz</tspan></text></g><g id="g10307" transform="matrix(0.6827629,0,0,0.6946598,90.91313,347.62281)"><path id="path10309" d="M 101.01525 82.615738 A 23.233509 21.213203 0 1 1 54.548237,82.615738 A 23.233509 21.213203 0 1 1 101.01525 82.615738 z" transform="matrix(0.7893459,0,0,0.8645217,267.91303,153.62415)" style="fill:#9512a0;fill-opacity:1;stroke:#414141;stroke-width:1.79999995;stroke-miterlimit:4;stroke-dasharray:none;stroke-opacity:.77134645"/><text id="text10311" x="353.553" y="230.098" style="font-size:13px;font-style:normal;font-weight:400;fill:#000;fill-opacity:1;stroke:none;stroke-width:1px;stroke-linecap:butt;stroke-linejoin:miter;stroke-opacity:1;font-family:Bitstream Vera Sans" xml:space="preserve"><tspan id="tspan10313" x="353.553" y="230.098">daily-log-2009-12-05_gz</tspan></text></g><rect style="fill:none;fill-opacity:1;stroke:#0c0c0c;stroke-width:.68868566;stroke-miterlimit:15;stroke-dasharray:.68868566,.68868566;stroke-dashoffset:0;stroke-opacity:1" id="rect10315" width="154.597" height="108.168" x="292.848" y="414.958"/><path style="fill:none;fill-rule:evenodd;stroke:#5d5d5d;stroke-width:.98390138px;stroke-linecap:butt;stroke-linejoin:miter;marker-end:url(#Arrow2Mend);stroke-opacity:1" id="path10319" d="M 210.13843,357.97891 L 303.01168,216.1771"/><path style="fill:none;fill-rule:evenodd;stroke:#5d5d5d;stroke-width:1px;stroke-linecap:butt;stroke-linejoin:miter;marker-end:url(#Arrow2Mend);stroke-opacity:1" id="path17127" d="M 119.198,179.80716 L 211.62696,69.953073" transform="translate(90.860771,178.47008)"/><path style="fill:none;fill-rule:evenodd;stroke:#5d5d5d;stroke-width:1px;stroke-linecap:butt;stroke-linejoin:miter;marker-end:url(#Arrow2Mend);stroke-opacity:1" id="path17129" d="M 119.198,180.0597 L 211.62696,102.78303" transform="translate(90.860771,178.47008)"/><path style="fill:none;fill-rule:evenodd;stroke:#000;stroke-width:1px;stroke-linecap:butt;stroke-linejoin:miter;stroke-opacity:1" id="path17131" d="M 119.198,180.31224 C 119.198,180.39642 119.198,180.4806 119.198,180.31224 z" transform="translate(90.860771,178.47008)"/><path style="fill:none;fill-rule:evenodd;stroke:#5d5d5d;stroke-width:1px;stroke-linecap:butt;stroke-linejoin:miter;marker-end:url(#Arrow2Mend);stroke-opacity:1" id="path17133" d="M 118.69292,180.0597 L 211.62696,149.75512" transform="translate(90.860771,178.47008)"/><path style="fill:none;fill-rule:evenodd;stroke:#5d5d5d;stroke-width:1px;stroke-linecap:butt;stroke-linejoin:miter;marker-end:url(#Arrow2Mend);stroke-opacity:1" id="path17135" d="M 118.94546,180.0597 L 211.12188,180.31224" transform="translate(90.860771,178.47008)"/><path style="fill:none;fill-rule:evenodd;stroke:#5d5d5d;stroke-width:1px;stroke-linecap:butt;stroke-linejoin:miter;marker-end:url(#Arrow2Mend);stroke-opacity:1" id="path17137" d="M 118.69292,180.31224 L 211.37442,211.87951" transform="translate(90.860771,178.47008)"/><path style="fill:none;fill-rule:evenodd;stroke:#5d5d5d;stroke-width:1px;stroke-linecap:butt;stroke-linejoin:miter;marker-end:url(#Arrow2Mend);stroke-opacity:1" id="path17139" d="M 118.94546,180.0597 L 211.37442,260.61937" transform="translate(90.860771,178.47008)"/><path style="fill:none;fill-rule:evenodd;stroke:#5d5d5d;stroke-width:1px;stroke-linecap:butt;stroke-linejoin:miter;marker-end:url(#Arrow2Mend);stroke-opacity:1" id="path17141" d="M 119.45054,180.0597 L 211.37442,291.42902" transform="translate(90.860771,178.47008)"/><path style="fill:none;fill-rule:evenodd;stroke:#5d5d5d;stroke-width:1px;stroke-linecap:butt;stroke-linejoin:miter;marker-end:url(#Arrow2Mend);stroke-opacity:1" id="path17143" d="M 119.198,179.80716 L 211.37442,322.74375" transform="translate(90.860771,178.47008)"/><path style="fill:#53a012;fill-opacity:1;stroke:#414141;stroke-width:1.79999995;stroke-miterlimit:4;stroke-dasharray:none;stroke-opacity:.77134645" id="path22039" d="M 101.01525 82.615738 A 23.233509 21.213203 0 1 1 54.548237,82.615738 A 23.233509 21.213203 0 1 1 101.01525 82.615738 z" transform="matrix(0.7893459,0,0,0.8645217,82.497075,223.17099)"/><path style="fill:#53a012;fill-opacity:1;stroke:#414141;stroke-width:1.79999995;stroke-miterlimit:4;stroke-dasharray:none;stroke-opacity:.77134645" id="path22041" d="M 101.01525 82.615738 A 23.233509 21.213203 0 1 1 54.548237,82.615738 A 23.233509 21.213203 0 1 1 101.01525 82.615738 z" transform="matrix(0.7893459,0,0,0.8645217,83.50723,340.34869)"/><path style="fill:#53a012;fill-opacity:1;stroke:#414141;stroke-width:1.79999995;stroke-miterlimit:4;stroke-dasharray:none;stroke-opacity:.77134645" id="path22043" d="M 101.01525 82.615738 A 23.233509 21.213203 0 1 1 54.548237,82.615738 A 23.233509 21.213203 0 1 1 101.01525 82.615738 z" transform="matrix(0.7893459,0,0,0.8645217,133.0047,390.35125)"/><text xml:space="preserve" style="font-size:13px;font-style:normal;font-weight:400;fill:#000;fill-opacity:1;stroke:none;stroke-width:1px;stroke-linecap:butt;stroke-linejoin:miter;stroke-opacity:1;font-family:Bitstream Vera Sans" id="text22045" x="23.078" y="297.675"><tspan id="tspan22047" x="23.078" y="297.675">data:log:assets</tspan></text><text xml:space="preserve" style="font-size:13px;font-style:normal;font-weight:400;fill:#000;fill-opacity:1;stroke:none;stroke-width:1px;stroke-linecap:butt;stroke-linejoin:miter;stroke-opacity:1;font-family:Bitstream Vera Sans" id="text22049" x="57.928" y="415.358"><tspan id="tspan22051" x="57.928" y="415.358">user:mike</tspan></text><text xml:space="preserve" style="font-size:13px;font-style:normal;font-weight:400;fill:#000;fill-opacity:1;stroke:none;stroke-width:1px;stroke-linecap:butt;stroke-linejoin:miter;stroke-opacity:1;font-family:Bitstream Vera Sans" id="text22053" x="59.444" y="464.856"><tspan id="tspan22055" x="59.444" y="464.856">data:log:peakday</tspan></text><path style="fill:none;fill-rule:evenodd;stroke:#515151;stroke-width:1px;stroke-linecap:butt;stroke-linejoin:miter;marker-end:url(#Arrow2Mend);stroke-opacity:1" id="path22057" d="M 160.61425,283.80934 L 250.01276,262.59614" transform="translate(51.969898,178.47008)"/><path style="fill:none;fill-rule:evenodd;stroke:#515151;stroke-width:1px;stroke-linecap:butt;stroke-linejoin:miter;marker-end:url(#Arrow2Mend);stroke-opacity:1" id="path22059" d="M 160.10918,283.80934 L 249.50768,293.40579" transform="translate(51.969898,178.47008)"/><path style="fill:none;fill-rule:evenodd;stroke:#515151;stroke-width:1.00275123px;stroke-linecap:butt;stroke-linejoin:miter;marker-end:url(#Arrow2Mend);stroke-opacity:1" id="path22063" d="M 212.08045,461.77572 L 301.97737,504.19938"/><path style="fill:none;fill-rule:evenodd;stroke:#515151;stroke-width:1px;stroke-linecap:butt;stroke-linejoin:miter;marker-end:url(#Arrow2Mend);stroke-opacity:1" id="path22067" d="M 104.04571,129.76108 L 127.27922,164.10626" transform="translate(51.969898,178.47008)"/><path style="fill:none;fill-rule:evenodd;stroke:#515151;stroke-width:1px;stroke-linecap:butt;stroke-linejoin:miter;marker-end:url(#Arrow2Mend);stroke-opacity:1" id="path22072" d="M 106.57109,219.66465 L 127.27922,195.42099" transform="translate(51.969898,178.47008)"/><path style="fill:none;fill-rule:evenodd;stroke:#515151;stroke-width:.94931662px;stroke-linecap:butt;stroke-linejoin:miter;marker-end:url(#Arrow2Mend);stroke-opacity:1" id="path22074" d="M 158.01058,425.88859 L 178.28028,449.70673"/></g></svg>