<svg xmlns="http://www.w3.org/2000/svg" xmlns:cc="http://web.resource.org/cc/" xmlns:svg="http://www.w3.org/2000/svg" id="svg2" width="442.61" height="184.858" version="1.0"><defs id="defs4"><marker id="Arrow2Lend" orient="auto" refX="0" refY="0" style="overflow:visible"><path id="path8071" style="font-size:12px;fill-rule:evenodd;stroke-width:.625;stroke-linejoin:round" d="M 8.7185878,4.0337352 L -2.2072895,0.016013256 L 8.7185884,-4.0017078 C 6.97309,-1.6296469 6.9831476,1.6157441 8.7185878,4.0337352 z" transform="matrix(-1.1,0,0,-1.1,-1.1,0)"/></marker><marker id="Arrow2Mend" orient="auto" refX="0" refY="0" style="overflow:visible"><path id="path8077" style="font-size:12px;fill-rule:evenodd;stroke-width:.625;stroke-linejoin:round" d="M 8.7185878,4.0337352 L -2.2072895,0.016013256 L 8.7185884,-4.0017078 C 6.97309,-1.6296469 6.9831476,1.6157441 8.7185878,4.0337352 z" transform="scale(-0.6,-0.6)"/></marker><marker id="Arrow1Mend" orient="auto" refX="0" refY="0" style="overflow:visible"><path id="path8059" d="M 0,0 L 5,-5 L -12.5,0 L 5,5 L 0,0 z" style="fill-rule:evenodd;stroke:#000;stroke-width:1pt;marker-start:none" transform="matrix(-0.4,0,0,-0.4,-4,0)"/></marker><marker id="Arrow1Lend" orient="auto" refX="0" refY="0" style="overflow:visible"><path id="path8053" d="M 0,0 L 5,-5 L -12.5,0 L 5,5 L 0,0 z" style="fill-rule:evenodd;stroke:#000;stroke-width:1pt;marker-start:none" transform="matrix(-0.8,0,0,-0.8,-10,0)"/></marker></defs><metadata id="metadata7"/><g id="layer1" transform="translate(-90.860771,-178.47008)"><rect style="fill:#fff;fill-opacity:1;stroke:none;stroke-width:1.79999995;stroke-miterlimit:4;stroke-dasharray:none;stroke-opacity:.77134645" id="rect5094" width="442.61" height="184.858" x="90.861" y="178.47"/><path style="fill:#9512a0;fill-opacity:1;stroke:#414141;stroke-width:1.79999995;stroke-miterlimit:4;stroke-dasharray:none;stroke-opacity:.77134645" id="path2160" d="M 101.01525 82.615738 A 23.233509 21.213203 0 1 1 54.548237,82.615738 A 23.233509 21.213203 0 1 1 101.01525 82.615738 z" transform="matrix(0.7893459,0,0,0.8645217,265.86964,153.62415)"/><text xml:space="preserve" style="font-size:13px;font-style:normal;font-weight:400;fill:#000;fill-opacity:1;stroke:none;stroke-width:1px;stroke-linecap:butt;stroke-linejoin:miter;stroke-opacity:1;font-family:Bitstream Vera Sans" id="text4103" x="351.51" y="230.098"><tspan id="tspan4105" x="351.51" y="230.098">daily-log-2009-12-03_gz</tspan></text><path style="fill:#9512a0;fill-opacity:1;stroke:#414141;stroke-width:1.79999995;stroke-miterlimit:4;stroke-dasharray:none;stroke-opacity:.77134645" id="path6084" d="M 101.01525 82.615738 A 23.233509 21.213203 0 1 1 54.548237,82.615738 A 23.233509 21.213203 0 1 1 101.01525 82.615738 z" transform="matrix(0.7893459,0,0,0.8645217,265.86964,200.03609)"/><text xml:space="preserve" style="font-size:13px;font-style:normal;font-weight:400;fill:#000;fill-opacity:1;stroke:none;stroke-width:1px;stroke-linecap:butt;stroke-linejoin:miter;stroke-opacity:1;font-family:Bitstream Vera Sans" id="text6086" x="351.51" y="276.51"><tspan id="tspan6088" x="351.51" y="276.51">daily-log-2009-12-03_gz</tspan></text><g id="g6090" transform="translate(-2.0433877,92.823885)"><path id="path6092" d="M 101.01525 82.615738 A 23.233509 21.213203 0 1 1 54.548237,82.615738 A 23.233509 21.213203 0 1 1 101.01525 82.615738 z" transform="matrix(0.7893459,0,0,0.8645217,267.91303,153.62415)" style="fill:#9512a0;fill-opacity:1;stroke:#414141;stroke-width:1.79999995;stroke-miterlimit:4;stroke-dasharray:none;stroke-opacity:.77134645"/><text id="text6094" x="353.553" y="230.098" style="font-size:13px;font-style:normal;font-weight:400;fill:#000;fill-opacity:1;stroke:none;stroke-width:1px;stroke-linecap:butt;stroke-linejoin:miter;stroke-opacity:1;font-family:Bitstream Vera Sans" xml:space="preserve"><tspan id="tspan6096" x="353.553" y="230.098">daily-log-2009-12-03_gz</tspan></text></g><path style="fill:#53a012;fill-opacity:1;stroke:#414141;stroke-width:1.79999995;stroke-miterlimit:4;stroke-dasharray:none;stroke-opacity:.77134645" id="path6101" d="M 101.01525 82.615738 A 23.233509 21.213203 0 1 1 54.548237,82.615738 A 23.233509 21.213203 0 1 1 101.01525 82.615738 z" transform="matrix(0.7893459,0,0,0.8645217,179.12976,199.98103)"/><text xml:space="preserve" style="font-size:13px;font-style:normal;font-weight:400;fill:#000;fill-opacity:1;stroke:none;stroke-width:1px;stroke-linecap:butt;stroke-linejoin:miter;stroke-opacity:1;font-family:Bitstream Vera Sans" id="text7072" x="108.196" y="275.445"><tspan id="tspan7074" x="108.196" y="275.445">data:log:website</tspan></text><path style="fill:none;fill-rule:evenodd;stroke:#5c5c5c;stroke-width:.93512475;stroke-linecap:butt;stroke-linejoin:miter;marker-end:url(#Arrow2Lend);stroke-miterlimit:15;stroke-dasharray:none;stroke-opacity:1" id="path7076" d="M 258.92931,269.92133 L 307.75974,228.91553"/><path style="fill:none;fill-rule:evenodd;stroke:#000;stroke-width:1px;stroke-linecap:butt;stroke-linejoin:miter;stroke-opacity:1" id="path8264" d="M -66.526854,81.129339 L -66.526854,81.129339" transform="translate(288.00363,178.47008)"/><path style="fill:none;fill-rule:evenodd;stroke:#5c5c5c;stroke-width:.93512475;stroke-linecap:butt;stroke-linejoin:miter;marker-end:url(#Arrow2Lend);stroke-miterlimit:15;stroke-dasharray:none;stroke-opacity:1" id="path9237" d="M 259.56391,270.42736 L 308.39434,311.43316"/><path style="fill:none;fill-rule:evenodd;stroke:#5c5c5c;stroke-width:.89033622;stroke-linecap:butt;stroke-linejoin:miter;marker-end:url(#Arrow2Lend);stroke-miterlimit:15;stroke-dasharray:none;stroke-opacity:1" id="path9239" d="M 258.0263,269.60227 L 307.48326,269.76116"/></g></svg>