<svg xmlns="http://www.w3.org/2000/svg" xmlns:cc="http://web.resource.org/cc/" xmlns:svg="http://www.w3.org/2000/svg" id="svg2" width="245.467" height="184.858" version="1.0"><metadata id="metadata7"/><g id="layer1" transform="translate(-288.00363,-178.47008)"><rect style="fill:#fff;fill-opacity:1;stroke:none;stroke-width:1.79999995;stroke-miterlimit:4;stroke-dasharray:none;stroke-opacity:.77134645" id="rect5094" width="245.467" height="184.858" x="288.004" y="178.47"/><g id="g6077" transform="translate(-2.0433877,3.8146973e-6)"><path id="path2160" d="M 101.01525 82.615738 A 23.233509 21.213203 0 1 1 54.548237,82.615738 A 23.233509 21.213203 0 1 1 101.01525 82.615738 z" transform="matrix(0.7893459,0,0,0.8645217,267.91303,153.62415)" style="fill:#9512a0;fill-opacity:1;stroke:#414141;stroke-width:1.79999995;stroke-miterlimit:4;stroke-dasharray:none;stroke-opacity:.77134645"/><text id="text4103" x="353.553" y="230.098" style="font-size:13px;font-style:normal;font-weight:400;fill:#000;fill-opacity:1;stroke:none;stroke-width:1px;stroke-linecap:butt;stroke-linejoin:miter;stroke-opacity:1;font-family:Bitstream Vera Sans" xml:space="preserve"><tspan id="tspan4105" x="353.553" y="230.098">daily-log-2009-12-03_gz</tspan></text></g><g id="g6082" transform="translate(-2.0433877,46.411944)"><path id="path6084" d="M 101.01525 82.615738 A 23.233509 21.213203 0 1 1 54.548237,82.615738 A 23.233509 21.213203 0 1 1 101.01525 82.615738 z" transform="matrix(0.7893459,0,0,0.8645217,267.91303,153.62415)" style="fill:#9512a0;fill-opacity:1;stroke:#414141;stroke-width:1.79999995;stroke-miterlimit:4;stroke-dasharray:none;stroke-opacity:.77134645"/><text id="text6086" x="353.553" y="230.098" style="font-size:13px;font-style:normal;font-weight:400;fill:#000;fill-opacity:1;stroke:none;stroke-width:1px;stroke-linecap:butt;stroke-linejoin:miter;stroke-opacity:1;font-family:Bitstream Vera Sans" xml:space="preserve"><tspan id="tspan6088" x="353.553" y="230.098">daily-log-2009-12-03_gz</tspan></text></g><g id="g6090" transform="translate(-2.0433877,92.823885)"><path id="path6092" d="M 101.01525 82.615738 A 23.233509 21.213203 0 1 1 54.548237,82.615738 A 23.233509 21.213203 0 1 1 101.01525 82.615738 z" transform="matrix(0.7893459,0,0,0.8645217,267.91303,153.62415)" style="fill:#9512a0;fill-opacity:1;stroke:#414141;stroke-width:1.79999995;stroke-miterlimit:4;stroke-dasharray:none;stroke-opacity:.77134645"/><text id="text6094" x="353.553" y="230.098" style="font-size:13px;font-style:normal;font-weight:400;fill:#000;fill-opacity:1;stroke:none;stroke-width:1px;stroke-linecap:butt;stroke-linejoin:miter;stroke-opacity:1;font-family:Bitstream Vera Sans" xml:space="preserve"><tspan id="tspan6096" x="353.553" y="230.098">daily-log-2009-12-03_gz</tspan></text></g></g></svg>