<svg xmlns="http://www.w3.org/2000/svg" xmlns:svg="http://www.w3.org/2000/svg" id="svg2" width="191.108" height="149.528" version="1.0"><defs id="defs4"><marker id="Arrow2Lend" orient="auto" refX="0" refY="0" style="overflow:visible"><path id="path8071" style="font-size:12px;fill-rule:evenodd;stroke-width:.625;stroke-linejoin:round" d="M 8.7185878,4.0337352 -2.2072895,0.01601326 8.7185884,-4.0017078 c -1.7454984,2.3720609 -1.7354408,5.6174519 -6e-7,8.035443 z" transform="matrix(-1.1,0,0,-1.1,-1.1,0)"/></marker><marker id="Arrow2Mend" orient="auto" refX="0" refY="0" style="overflow:visible"><path id="path8077" style="font-size:12px;fill-rule:evenodd;stroke-width:.625;stroke-linejoin:round" d="M 8.7185878,4.0337352 -2.2072895,0.01601326 8.7185884,-4.0017078 c -1.7454984,2.3720609 -1.7354408,5.6174519 -6e-7,8.035443 z" transform="scale(-0.6,-0.6)"/></marker><marker id="Arrow1Mend" orient="auto" refX="0" refY="0" style="overflow:visible"><path id="path8059" d="M 0,0 5,-5 -12.5,0 5,5 0,0 z" style="fill-rule:evenodd;stroke:#000;stroke-width:1pt;marker-start:none" transform="matrix(-0.4,0,0,-0.4,-4,0)"/></marker><marker id="Arrow1Lend" orient="auto" refX="0" refY="0" style="overflow:visible"><path id="path8053" d="M 0,0 5,-5 -12.5,0 5,5 0,0 z" style="fill-rule:evenodd;stroke:#000;stroke-width:1pt;marker-start:none" transform="matrix(-0.8,0,0,-0.8,-10,0)"/></marker><marker id="Arrow1Mend-8" orient="auto" refX="0" refY="0" style="overflow:visible"><path id="path8059-6" d="M 0,0 5,-5 -12.5,0 5,5 0,0 z" style="fill-rule:evenodd;stroke:#000;stroke-width:1pt;marker-start:none" transform="matrix(-0.4,0,0,-0.4,-4,0)"/></marker><marker id="Arrow1Mend-2" orient="auto" refX="0" refY="0" style="overflow:visible"><path id="path8059-4" d="M 0,0 5,-5 -12.5,0 5,5 0,0 z" style="fill-rule:evenodd;stroke:#000;stroke-width:1pt;marker-start:none" transform="matrix(-0.4,0,0,-0.4,-4,0)"/></marker><marker id="Arrow1Mend-5" orient="auto" refX="0" refY="0" style="overflow:visible"><path id="path8059-5" d="M 0,0 5,-5 -12.5,0 5,5 0,0 z" style="fill-rule:evenodd;stroke:#000;stroke-width:1pt;marker-start:none" transform="matrix(-0.4,0,0,-0.4,-4,0)"/></marker><marker id="Arrow1Mend-4" orient="auto" refX="0" refY="0" style="overflow:visible"><path id="path8059-8" d="M 0,0 5,-5 -12.5,0 5,5 0,0 z" style="fill-rule:evenodd;stroke:#000;stroke-width:1pt;marker-start:none" transform="matrix(-0.4,0,0,-0.4,-4,0)"/></marker><marker id="Arrow1Mend-53" orient="auto" refX="0" refY="0" style="overflow:visible"><path id="path8059-84" d="M 0,0 5,-5 -12.5,0 5,5 0,0 z" style="fill-rule:evenodd;stroke:#000;stroke-width:1pt;marker-start:none" transform="matrix(-0.4,0,0,-0.4,-4,0)"/></marker><marker id="Arrow1Mend-3" orient="auto" refX="0" refY="0" style="overflow:visible"><path id="path8059-9" d="M 0,0 5,-5 -12.5,0 5,5 0,0 z" style="fill-rule:evenodd;stroke:#000;stroke-width:1pt;marker-start:none" transform="matrix(-0.4,0,0,-0.4,-4,0)"/></marker><marker id="Arrow1Mend-1" orient="auto" refX="0" refY="0" style="overflow:visible"><path id="path8059-97" d="M 0,0 5,-5 -12.5,0 5,5 0,0 z" style="fill-rule:evenodd;stroke:#000;stroke-width:1pt;marker-start:none" transform="matrix(-0.4,0,0,-0.4,-4,0)"/></marker><marker id="Arrow1Mend-27" orient="auto" refX="0" refY="0" style="overflow:visible"><path id="path8059-1" d="M 0,0 5,-5 -12.5,0 5,5 0,0 z" style="fill-rule:evenodd;stroke:#000;stroke-width:1pt;marker-start:none" transform="matrix(-0.4,0,0,-0.4,-4,0)"/></marker><marker id="Arrow1Mend-87" orient="auto" refX="0" refY="0" style="overflow:visible"><path id="path8059-7" d="M 0,0 5,-5 -12.5,0 5,5 0,0 z" style="fill-rule:evenodd;stroke:#000;stroke-width:1pt;marker-start:none" transform="matrix(-0.4,0,0,-0.4,-4,0)"/></marker><marker id="Arrow1Mend-9" orient="auto" refX="0" refY="0" style="overflow:visible"><path id="path8059-47" d="M 0,0 5,-5 -12.5,0 5,5 0,0 z" style="fill-rule:evenodd;stroke:#000;stroke-width:1pt;marker-start:none" transform="matrix(-0.4,0,0,-0.4,-4,0)"/></marker><marker id="Arrow1Mend-46" orient="auto" refX="0" refY="0" style="overflow:visible"><path id="path8059-85" d="M 0,0 5,-5 -12.5,0 5,5 0,0 z" style="fill-rule:evenodd;stroke:#000;stroke-width:1pt;marker-start:none" transform="matrix(-0.4,0,0,-0.4,-4,0)"/></marker><marker id="Arrow1Mend-46-4" orient="auto" refX="0" refY="0" style="overflow:visible"><path id="path8059-85-9" d="M 0,0 5,-5 -12.5,0 5,5 0,0 z" style="fill-rule:evenodd;stroke:#000;stroke-width:1pt;marker-start:none" transform="matrix(-0.4,0,0,-0.4,-4,0)"/></marker><marker id="Arrow1Mend-46-45" orient="auto" refX="0" refY="0" style="overflow:visible"><path id="path8059-85-7" d="M 0,0 5,-5 -12.5,0 5,5 0,0 z" style="fill-rule:evenodd;stroke:#000;stroke-width:1pt;marker-start:none" transform="matrix(-0.4,0,0,-0.4,-4,0)"/></marker><marker id="Arrow1Mend-46-1" orient="auto" refX="0" refY="0" style="overflow:visible"><path id="path8059-85-1" d="M 0,0 5,-5 -12.5,0 5,5 0,0 z" style="fill-rule:evenodd;stroke:#000;stroke-width:1pt;marker-start:none" transform="matrix(-0.4,0,0,-0.4,-4,0)"/></marker><marker id="Arrow1Mend-46-1-8" orient="auto" refX="0" refY="0" style="overflow:visible"><path id="path8059-85-1-5" d="M 0,0 5,-5 -12.5,0 5,5 0,0 z" style="fill-rule:evenodd;stroke:#000;stroke-width:1pt;marker-start:none" transform="matrix(-0.4,0,0,-0.4,-4,0)"/></marker><marker id="Arrow1Mend-46-1-7" orient="auto" refX="0" refY="0" style="overflow:visible"><path id="path8059-85-1-2" d="M 0,0 5,-5 -12.5,0 5,5 0,0 z" style="fill-rule:evenodd;stroke:#000;stroke-width:1pt;marker-start:none" transform="matrix(-0.4,0,0,-0.4,-4,0)"/></marker><marker id="Arrow1Mend-46-1-2" orient="auto" refX="0" refY="0" style="overflow:visible"><path id="path8059-85-1-0" d="M 0,0 5,-5 -12.5,0 5,5 0,0 z" style="fill-rule:evenodd;stroke:#000;stroke-width:1pt;marker-start:none" transform="matrix(-0.4,0,0,-0.4,-4,0)"/></marker><marker id="Arrow1Mend-46-1-2-8" orient="auto" refX="0" refY="0" style="overflow:visible"><path id="path8059-85-1-0-6" d="M 0,0 5,-5 -12.5,0 5,5 0,0 z" style="fill-rule:evenodd;stroke:#000;stroke-width:1pt;marker-start:none" transform="matrix(-0.4,0,0,-0.4,-4,0)"/></marker><marker id="Arrow1Mend-46-1-2-3" orient="auto" refX="0" refY="0" style="overflow:visible"><path id="path8059-85-1-0-65" d="M 0,0 5,-5 -12.5,0 5,5 0,0 z" style="fill-rule:evenodd;stroke:#000;stroke-width:1pt;marker-start:none" transform="matrix(-0.4,0,0,-0.4,-4,0)"/></marker><marker id="Arrow1Mend-46-1-2-0" orient="auto" refX="0" refY="0" style="overflow:visible"><path id="path8059-85-1-0-0" d="M 0,0 5,-5 -12.5,0 5,5 0,0 z" style="fill-rule:evenodd;stroke:#000;stroke-width:1pt;marker-start:none" transform="matrix(-0.4,0,0,-0.4,-4,0)"/></marker><marker id="Arrow1Mend-46-6" orient="auto" refX="0" refY="0" style="overflow:visible"><path id="path8059-85-15" d="M 0,0 5,-5 -12.5,0 5,5 0,0 z" style="fill-rule:evenodd;stroke:#000;stroke-width:1pt;marker-start:none" transform="matrix(-0.4,0,0,-0.4,-4,0)"/></marker><marker id="Arrow1Mend-46-1-3" orient="auto" refX="0" refY="0" style="overflow:visible"><path id="path8059-85-1-8" d="M 0,0 5,-5 -12.5,0 5,5 0,0 z" style="fill-rule:evenodd;stroke:#000;stroke-width:1pt;marker-start:none" transform="matrix(-0.4,0,0,-0.4,-4,0)"/></marker><marker id="Arrow1Mend-46-1-2-2" orient="auto" refX="0" refY="0" style="overflow:visible"><path id="path8059-85-1-0-2" d="M 0,0 5,-5 -12.5,0 5,5 0,0 z" style="fill-rule:evenodd;stroke:#000;stroke-width:1pt;marker-start:none" transform="matrix(-0.4,0,0,-0.4,-4,0)"/></marker><marker id="Arrow1Mend-46-47" orient="auto" refX="0" refY="0" style="overflow:visible"><path id="path8059-85-8" d="M 0,0 5,-5 -12.5,0 5,5 0,0 z" style="fill-rule:evenodd;stroke:#000;stroke-width:1pt;marker-start:none" transform="matrix(-0.4,0,0,-0.4,-4,0)"/></marker><marker id="Arrow1Mend-46-1-29" orient="auto" refX="0" refY="0" style="overflow:visible"><path id="path8059-85-1-1" d="M 0,0 5,-5 -12.5,0 5,5 0,0 z" style="fill-rule:evenodd;stroke:#000;stroke-width:1pt;marker-start:none" transform="matrix(-0.4,0,0,-0.4,-4,0)"/></marker><marker id="Arrow1Mend-46-1-2-6" orient="auto" refX="0" refY="0" style="overflow:visible"><path id="path8059-85-1-0-9" d="M 0,0 5,-5 -12.5,0 5,5 0,0 z" style="fill-rule:evenodd;stroke:#000;stroke-width:1pt;marker-start:none" transform="matrix(-0.4,0,0,-0.4,-4,0)"/></marker><marker id="Arrow1Mend-46-9" orient="auto" refX="0" refY="0" style="overflow:visible"><path id="path8059-85-4" d="M 0,0 5,-5 -12.5,0 5,5 0,0 z" style="fill-rule:evenodd;stroke:#000;stroke-width:1pt;marker-start:none" transform="matrix(-0.4,0,0,-0.4,-4,0)"/></marker><marker id="Arrow1Mend-46-1-5" orient="auto" refX="0" refY="0" style="overflow:visible"><path id="path8059-85-1-03" d="M 0,0 5,-5 -12.5,0 5,5 0,0 z" style="fill-rule:evenodd;stroke:#000;stroke-width:1pt;marker-start:none" transform="matrix(-0.4,0,0,-0.4,-4,0)"/></marker><marker id="Arrow1Mend-46-1-2-7" orient="auto" refX="0" refY="0" style="overflow:visible"><path id="path8059-85-1-0-3" d="M 0,0 5,-5 -12.5,0 5,5 0,0 z" style="fill-rule:evenodd;stroke:#000;stroke-width:1pt;marker-start:none" transform="matrix(-0.4,0,0,-0.4,-4,0)"/></marker><marker id="Arrow1Mend-46-5" orient="auto" refX="0" refY="0" style="overflow:visible"><path id="path8059-85-16" d="M 0,0 5,-5 -12.5,0 5,5 0,0 z" style="fill-rule:evenodd;stroke:#000;stroke-width:1pt;marker-start:none" transform="matrix(-0.4,0,0,-0.4,-4,0)"/></marker><marker id="Arrow1Mend-46-17" orient="auto" refX="0" refY="0" style="overflow:visible"><path id="path8059-85-5" d="M 0,0 5,-5 -12.5,0 5,5 0,0 z" style="fill-rule:evenodd;stroke:#000;stroke-width:1pt;marker-start:none" transform="matrix(-0.4,0,0,-0.4,-4,0)"/></marker><marker id="Arrow1Mend-46-41" orient="auto" refX="0" refY="0" style="overflow:visible"><path id="path8059-85-0" d="M 0,0 5,-5 -12.5,0 5,5 0,0 z" style="fill-rule:evenodd;stroke:#000;stroke-width:1pt;marker-start:none" transform="matrix(-0.4,0,0,-0.4,-4,0)"/></marker><marker id="Arrow2Mend-0" orient="auto" refX="0" refY="0" style="overflow:visible"><path id="path8077-7" style="font-size:12px;fill-rule:evenodd;stroke-width:.625;stroke-linejoin:round" d="M 8.7185878,4.0337352 -2.2072895,0.01601326 8.7185884,-4.0017078 c -1.7454984,2.3720609 -1.7354408,5.6174519 -6e-7,8.035443 z" transform="scale(-0.6,-0.6)"/></marker><marker id="Arrow2Mend-9" orient="auto" refX="0" refY="0" style="overflow:visible"><path id="path8077-0" style="font-size:12px;fill-rule:evenodd;stroke-width:.625;stroke-linejoin:round" d="M 8.7185878,4.0337352 -2.2072895,0.01601326 8.7185884,-4.0017078 c -1.7454984,2.3720609 -1.7354408,5.6174519 -6e-7,8.035443 z" transform="scale(-0.6,-0.6)"/></marker><marker id="Arrow1Mend-46-7" orient="auto" refX="0" refY="0" style="overflow:visible"><path id="path8059-85-09" d="M 0,0 5,-5 -12.5,0 5,5 0,0 z" style="fill-rule:evenodd;stroke:#000;stroke-width:1pt;marker-start:none" transform="matrix(-0.4,0,0,-0.4,-4,0)"/></marker><marker id="Arrow1Mend-46-1-1" orient="auto" refX="0" refY="0" style="overflow:visible"><path id="path8059-85-1-25" d="M 0,0 5,-5 -12.5,0 5,5 0,0 z" style="fill-rule:evenodd;stroke:#000;stroke-width:1pt;marker-start:none" transform="matrix(-0.4,0,0,-0.4,-4,0)"/></marker><marker id="Arrow1Mend-46-1-2-30" orient="auto" refX="0" refY="0" style="overflow:visible"><path id="path8059-85-1-0-93" d="M 0,0 5,-5 -12.5,0 5,5 0,0 z" style="fill-rule:evenodd;stroke:#000;stroke-width:1pt;marker-start:none" transform="matrix(-0.4,0,0,-0.4,-4,0)"/></marker><marker id="Arrow1Mend-46-48" orient="auto" refX="0" refY="0" style="overflow:visible"><path id="path8059-85-47" d="M 0,0 5,-5 -12.5,0 5,5 0,0 z" style="fill-rule:evenodd;stroke:#000;stroke-width:1pt;marker-start:none" transform="matrix(-0.4,0,0,-0.4,-4,0)"/></marker><marker id="Arrow1Mend-46-1-6" orient="auto" refX="0" refY="0" style="overflow:visible"><path id="path8059-85-1-3" d="M 0,0 5,-5 -12.5,0 5,5 0,0 z" style="fill-rule:evenodd;stroke:#000;stroke-width:1pt;marker-start:none" transform="matrix(-0.4,0,0,-0.4,-4,0)"/></marker><marker id="Arrow1Mend-46-1-2-9" orient="auto" refX="0" refY="0" style="overflow:visible"><path id="path8059-85-1-0-97" d="M 0,0 5,-5 -12.5,0 5,5 0,0 z" style="fill-rule:evenodd;stroke:#000;stroke-width:1pt;marker-start:none" transform="matrix(-0.4,0,0,-0.4,-4,0)"/></marker><marker id="Arrow2Mend-9-1" orient="auto" refX="0" refY="0" style="overflow:visible"><path id="path8077-0-4" style="font-size:12px;fill-rule:evenodd;stroke-width:.625;stroke-linejoin:round" d="M 8.7185878,4.0337352 -2.2072895,0.01601326 8.7185884,-4.0017078 c -1.7454984,2.3720609 -1.7354408,5.6174519 -6e-7,8.035443 z" transform="scale(-0.6,-0.6)"/></marker><marker id="marker6929" orient="auto" refX="0" refY="0" style="overflow:visible"><path id="path6931" style="font-size:12px;fill-rule:evenodd;stroke-width:.625;stroke-linejoin:round" d="M 8.7185878,4.0337352 -2.2072895,0.01601326 8.7185884,-4.0017078 c -1.7454984,2.3720609 -1.7354408,5.6174519 -6e-7,8.035443 z" transform="scale(-0.6,-0.6)"/></marker><marker id="marker6933" orient="auto" refX="0" refY="0" style="overflow:visible"><path id="path6935" style="font-size:12px;fill-rule:evenodd;stroke-width:.625;stroke-linejoin:round" d="M 8.7185878,4.0337352 -2.2072895,0.01601326 8.7185884,-4.0017078 c -1.7454984,2.3720609 -1.7354408,5.6174519 -6e-7,8.035443 z" transform="scale(-0.6,-0.6)"/></marker><marker id="Arrow2Mend-9-5" orient="auto" refX="0" refY="0" style="overflow:visible"><path id="path8077-0-8" style="font-size:12px;fill-rule:evenodd;stroke-width:.625;stroke-linejoin:round" d="M 8.7185878,4.0337352 -2.2072895,0.01601326 8.7185884,-4.0017078 c -1.7454984,2.3720609 -1.7354408,5.6174519 -6e-7,8.035443 z" transform="scale(-0.6,-0.6)"/></marker><marker id="marker6929-6" orient="auto" refX="0" refY="0" style="overflow:visible"><path id="path6931-7" style="font-size:12px;fill-rule:evenodd;stroke-width:.625;stroke-linejoin:round" d="M 8.7185878,4.0337352 -2.2072895,0.01601326 8.7185884,-4.0017078 c -1.7454984,2.3720609 -1.7354408,5.6174519 -6e-7,8.035443 z" transform="scale(-0.6,-0.6)"/></marker><marker id="marker6933-9" orient="auto" refX="0" refY="0" style="overflow:visible"><path id="path6935-9" style="font-size:12px;fill-rule:evenodd;stroke-width:.625;stroke-linejoin:round" d="M 8.7185878,4.0337352 -2.2072895,0.01601326 8.7185884,-4.0017078 c -1.7454984,2.3720609 -1.7354408,5.6174519 -6e-7,8.035443 z" transform="scale(-0.6,-0.6)"/></marker></defs><metadata id="metadata7"/><g id="layer1" transform="translate(-296.66156,358.24301)"><g id="g3211" transform="translate(-40,420)"><g id="g3166" transform="translate(3.4327927e-5,-490.00001)"><rect style="fill:#fff;fill-opacity:1;stroke:#000;stroke-width:1.56045377;stroke-linejoin:round;stroke-miterlimit:.89999998;stroke-opacity:1;stroke-dasharray:none;stroke-dashoffset:0" id="rect4120" width="60.327" height="161.455" x="269.241" y="-634.833" ry="1.104"/><rect style="fill:#fff;fill-opacity:1;stroke:#000;stroke-width:1.56045377;stroke-linejoin:round;stroke-miterlimit:.89999998;stroke-opacity:1;stroke-dasharray:none;stroke-dashoffset:0" id="rect4120-2" width="60.327" height="161.455" x="437.868" y="-634.907" ry="1.104"/><path style="fill:none;stroke:#000;stroke-width:1.61013234px;stroke-linecap:butt;stroke-linejoin:miter;stroke-opacity:1" id="path8264" d="m 323.09124,-496.12199 0,0"/><path style="fill:#747a81;fill-opacity:1;stroke:#414141;stroke-width:1.79999995;stroke-miterlimit:4;stroke-opacity:.77134645;stroke-dasharray:none" id="path2160" d="m 101.01525,82.615738 c 0,11.715729 -10.401991,21.213202 -23.233504,21.213202 -12.831513,0 -23.233509,-9.497473 -23.233509,-21.213202 0,-11.715729 10.401996,-21.213204 23.233509,-21.213204 12.831513,0 23.233504,9.497475 23.233504,21.213204 z" transform="matrix(0.86565248,0,0,0.96931482,232.40378,-686.65465)"/><path style="fill:#747a81;fill-opacity:1;stroke:#414141;stroke-width:1.79999995;stroke-miterlimit:4;stroke-opacity:.77134645;stroke-dasharray:none" id="path2160-5" d="m 101.01525,82.615738 c 0,11.715729 -10.401991,21.213202 -23.233504,21.213202 -12.831513,0 -23.233509,-9.497473 -23.233509,-21.213202 0,-11.715729 10.401996,-21.213204 23.233509,-21.213204 12.831513,0 23.233504,9.497475 23.233504,21.213204 z" transform="matrix(0.86565248,0,0,0.96931482,231.98335,-633.83462)"/><path style="fill:#747a81;fill-opacity:1;stroke:#414141;stroke-width:1.79999995;stroke-miterlimit:4;stroke-opacity:.77134645;stroke-dasharray:none" id="path2160-1" d="m 101.01525,82.615738 c 0,11.715729 -10.401991,21.213202 -23.233504,21.213202 -12.831513,0 -23.233509,-9.497473 -23.233509,-21.213202 0,-11.715729 10.401996,-21.213204 23.233509,-21.213204 12.831513,0 23.233504,9.497475 23.233504,21.213204 z" transform="matrix(0.86565248,0,0,0.96931482,231.9401,-581.0146)"/><path style="fill:#747a81;fill-opacity:1;stroke:#414141;stroke-width:1.79999995;stroke-miterlimit:4;stroke-opacity:.77134645;stroke-dasharray:none" id="path2160-59" d="m 101.01525,82.615738 c 0,11.715729 -10.401991,21.213202 -23.233504,21.213202 -12.831513,0 -23.233509,-9.497473 -23.233509,-21.213202 0,-11.715729 10.401996,-21.213204 23.233509,-21.213204 12.831513,0 23.233504,9.497475 23.233504,21.213204 z" transform="matrix(0.86565248,0,0,0.96931482,401.01334,-668.88929)"/><path style="fill:#747a81;fill-opacity:1;stroke:#414141;stroke-width:1.79999995;stroke-miterlimit:4;stroke-opacity:.77134645;stroke-dasharray:none" id="path2160-59-2" d="m 101.01525,82.615738 c 0,11.715729 -10.401991,21.213202 -23.233504,21.213202 -12.831513,0 -23.233509,-9.497473 -23.233509,-21.213202 0,-11.715729 10.401996,-21.213204 23.233509,-21.213204 12.831513,0 23.233504,9.497475 23.233504,21.213204 z" transform="matrix(0.86565248,0,0,0.96931482,401.07523,-600.08317)"/><path style="fill:none;stroke:#000;stroke-width:1.61013234px;stroke-linecap:butt;stroke-linejoin:miter;stroke-opacity:1;marker-end:url(#Arrow1Mend-46)" id="path9917" d="m 321.58628,-606.61137 30.65304,-14.45064"/><path style="fill:none;stroke:#000;stroke-width:1.61013234px;stroke-linecap:butt;stroke-linejoin:miter;stroke-opacity:1;marker-end:url(#Arrow1Mend-46-1)" id="path10188" d="m 321.5678,-606.34494 30.26975,-0.21123"/><path style="fill:none;stroke:#000;stroke-width:1.61013234px;stroke-linecap:butt;stroke-linejoin:miter;stroke-opacity:1;marker-end:url(#Arrow1Mend-46-1-2)" id="path10452" d="m 321.35759,-606.55617 30.47996,15.8423"/><path style="fill:none;stroke:#000;stroke-width:1.61013234px;stroke-linecap:butt;stroke-linejoin:miter;stroke-opacity:1;marker-end:url(#Arrow1Mend-46)" id="path9917-6" d="m 320.96419,-553.65502 30.65305,-14.45065"/><path style="fill:none;stroke:#000;stroke-width:1.61013234px;stroke-linecap:butt;stroke-linejoin:miter;stroke-opacity:1;marker-end:url(#Arrow1Mend-46-1)" id="path10188-9" d="m 320.9457,-553.38859 30.26975,-0.21123"/><path style="fill:none;stroke:#000;stroke-width:1.61013234px;stroke-linecap:butt;stroke-linejoin:miter;stroke-opacity:1;marker-end:url(#Arrow1Mend-46-1-2)" id="path10452-5" d="m 320.73549,-553.59982 30.47996,15.84229"/><path style="fill:none;stroke:#000;stroke-width:1.61013234px;stroke-linecap:butt;stroke-linejoin:miter;stroke-opacity:1;marker-end:url(#Arrow1Mend-46)" id="path9917-4" d="m 321.26383,-501.39121 30.65304,-14.45064"/><path style="fill:none;stroke:#000;stroke-width:1.61013234px;stroke-linecap:butt;stroke-linejoin:miter;stroke-opacity:1;marker-end:url(#Arrow1Mend-46-1)" id="path10188-8" d="m 321.24534,-501.12477 30.26976,-0.21124"/><path style="fill:none;stroke:#000;stroke-width:1.61013234px;stroke-linecap:butt;stroke-linejoin:miter;stroke-opacity:1;marker-end:url(#Arrow1Mend-46-1-2)" id="path10452-8" d="m 321.03513,-501.33601 30.47997,15.8423"/><path style="fill:none;stroke:#000;stroke-width:1.61013234px;stroke-linecap:butt;stroke-linejoin:miter;stroke-opacity:1;marker-end:url(#Arrow2Mend-9)" id="path5834" d="m 416.39952,-600.74172 28.46352,13.30335"/><path style="fill:none;stroke:#000;stroke-width:1.61013234px;stroke-linecap:butt;stroke-linejoin:miter;stroke-opacity:1;marker-end:url(#Arrow2Mend-9)" id="path5836" d="m 416.39952,-585.77547 28.7945,-0.33258"/><path style="fill:none;stroke:#000;stroke-width:1.61013234px;stroke-linecap:butt;stroke-linejoin:miter;stroke-opacity:1;marker-end:url(#Arrow2Mend-9)" id="path5838" d="m 415.40662,-569.81145 29.45644,-15.29883"/><path style="fill:none;stroke:#000;stroke-width:1.61013234px;stroke-linecap:butt;stroke-linejoin:miter;stroke-opacity:1;marker-end:url(#Arrow2Mend-9)" id="path5834-3" d="m 416.39956,-533.72613 28.46351,13.30334"/><path style="fill:none;stroke:#000;stroke-width:1.61013234px;stroke-linecap:butt;stroke-linejoin:miter;stroke-opacity:1;marker-end:url(#Arrow2Mend-9)" id="path5836-3" d="m 416.39956,-518.75988 28.79449,-0.33259"/><path style="fill:none;stroke:#000;stroke-width:1.61013234px;stroke-linecap:butt;stroke-linejoin:miter;stroke-opacity:1;marker-end:url(#Arrow2Mend-9)" id="path5838-1" d="m 415.40665,-502.79587 29.45644,-15.29883"/><text xml:space="preserve" style="font-size:28.98237991px;font-style:normal;font-variant:normal;font-weight:400;font-stretch:normal;text-align:start;line-height:125%;letter-spacing:0;word-spacing:0;writing-mode:lr-tb;text-anchor:start;fill:#000;fill-opacity:1;stroke:none;font-family:Liberation Serif;-inkscape-font-specification:Liberation Serif" id="text6991" x="265.127" y="-434.723" transform="scale(0.99757315,1.0024328)"><tspan id="tspan6993" x="265.127" y="-434.723">Stage</tspan></text><text xml:space="preserve" style="font-size:28.98237991px;font-style:normal;font-variant:normal;font-weight:400;font-stretch:normal;text-align:start;line-height:125%;letter-spacing:0;word-spacing:0;writing-mode:lr-tb;text-anchor:start;fill:#000;fill-opacity:1;stroke:none;font-family:Liberation Serif;-inkscape-font-specification:Liberation Serif" id="text6995" x="447.272" y="-435.718" transform="scale(0.99757315,1.0024328)"><tspan id="tspan6997" x="447.272" y="-435.718">Stage</tspan></text><text xml:space="preserve" style="font-size:28.98237991px;font-style:normal;font-variant:normal;font-weight:400;font-stretch:normal;text-align:start;line-height:125%;letter-spacing:0;word-spacing:0;writing-mode:lr-tb;text-anchor:start;fill:#000;fill-opacity:1;stroke:none;font-family:Liberation Serif;-inkscape-font-specification:Liberation Serif" id="text7003" x="330.345" y="-649.369" transform="scale(0.99757315,1.0024328)"><tspan id="tspan7005" x="330.345" y="-649.369">Grouping</tspan></text><rect style="fill:#3878ac;fill-opacity:1;stroke:#000;stroke-width:1.61013234;stroke-linejoin:round;stroke-miterlimit:.89999998;stroke-opacity:1;stroke-dasharray:none;stroke-dashoffset:0" id="rect7009" width="32.124" height="32.281" x="369.699" y="-570.247" ry="1.104"/><path style="fill:none;stroke:#000;stroke-width:1.61013234px;stroke-linecap:butt;stroke-linejoin:miter;stroke-opacity:1" id="path7011" d="m 369.6991,-570.24649 32.12449,32.281"/><path style="fill:none;stroke:#000;stroke-width:1.61013234px;stroke-linecap:butt;stroke-linejoin:miter;stroke-opacity:1" id="path7013" d="m 369.6991,-537.96549 32.12449,-32.281"/><path style="fill:none;stroke:#000;stroke-width:1.61013234px;stroke-linecap:butt;stroke-linejoin:miter;stroke-opacity:1" id="path7015" d="m 369.6991,-554.106 32.12449,0"/><path style="fill:#000;fill-opacity:1;stroke:#000;stroke-width:1;stroke-linejoin:round;stroke-miterlimit:.89999998;stroke-opacity:1;stroke-dasharray:none;stroke-dashoffset:0" id="path7029" d="m 290.09502,154.9751 c 0,0.56329 -0.42402,1.01992 -0.94707,1.01992 -0.52305,0 -0.94707,-0.45663 -0.94707,-1.01992 0,-0.56329 0.42402,-1.01992 0.94707,-1.01992 0.52305,0 0.94707,0.45663 0.94707,1.01992 z" transform="matrix(1.6062247,0,0,1.6140494,-233.57131,-804.19729)"/><path transform="matrix(1.6062247,0,0,1.6140494,-216.99801,-804.19729)" style="fill:#000;fill-opacity:1;stroke:#000;stroke-width:1;stroke-linejoin:round;stroke-miterlimit:.89999998;stroke-opacity:1;stroke-dasharray:none;stroke-dashoffset:0" id="path7029-2-9" d="m 290.09502,154.9751 c 0,0.56329 -0.42402,1.01992 -0.94707,1.01992 -0.52305,0 -0.94707,-0.45663 -0.94707,-1.01992 0,-0.56329 0.42402,-1.01992 0.94707,-1.01992 0.52305,0 0.94707,0.45663 0.94707,1.01992 z"/><path transform="matrix(1.6062247,0,0,1.6140494,-225.26316,-804.04845)" style="fill:#000;fill-opacity:1;stroke:#000;stroke-width:1;stroke-linejoin:round;stroke-miterlimit:.89999998;stroke-opacity:1;stroke-dasharray:none;stroke-dashoffset:0" id="path7029-2-9-8" d="m 290.09502,154.9751 c 0,0.56329 -0.42402,1.01992 -0.94707,1.01992 -0.52305,0 -0.94707,-0.45663 -0.94707,-1.01992 0,-0.56329 0.42402,-1.01992 0.94707,-1.01992 0.52305,0 0.94707,0.45663 0.94707,1.01992 z"/><path style="fill:#000;fill-opacity:1;stroke:#000;stroke-width:1;stroke-linejoin:round;stroke-miterlimit:.89999998;stroke-opacity:1;stroke-dasharray:none;stroke-dashoffset:0" id="path7029-7" d="m 290.09502,154.9751 c 0,0.56329 -0.42402,1.01992 -0.94707,1.01992 -0.52305,0 -0.94707,-0.45663 -0.94707,-1.01992 0,-0.56329 0.42402,-1.01992 0.94707,-1.01992 0.52305,0 0.94707,0.45663 0.94707,1.01992 z" transform="matrix(1.6062247,0,0,1.6140494,52.169897,-804.28363)"/><path transform="matrix(1.6062247,0,0,1.6140494,68.743197,-804.28363)" style="fill:#000;fill-opacity:1;stroke:#000;stroke-width:1;stroke-linejoin:round;stroke-miterlimit:.89999998;stroke-opacity:1;stroke-dasharray:none;stroke-dashoffset:0" id="path7029-2-9-85" d="m 290.09502,154.9751 c 0,0.56329 -0.42402,1.01992 -0.94707,1.01992 -0.52305,0 -0.94707,-0.45663 -0.94707,-1.01992 0,-0.56329 0.42402,-1.01992 0.94707,-1.01992 0.52305,0 0.94707,0.45663 0.94707,1.01992 z"/><path transform="matrix(1.6062247,0,0,1.6140494,60.478048,-804.1348)" style="fill:#000;fill-opacity:1;stroke:#000;stroke-width:1;stroke-linejoin:round;stroke-miterlimit:.89999998;stroke-opacity:1;stroke-dasharray:none;stroke-dashoffset:0" id="path7029-2-9-8-2" d="m 290.09502,154.9751 c 0,0.56329 -0.42402,1.01992 -0.94707,1.01992 -0.52305,0 -0.94707,-0.45663 -0.94707,-1.01992 0,-0.56329 0.42402,-1.01992 0.94707,-1.01992 0.52305,0 0.94707,0.45663 0.94707,1.01992 z"/></g><rect id="rect3207" width="620" height="340" x="-227.118" y="-842.706" transform="translate(296.66156,-358.24301)" style="opacity:0;fill:#000;fill-opacity:0;stroke:#000;stroke-width:1;stroke-linejoin:round;stroke-miterlimit:4;stroke-opacity:1;stroke-dasharray:8,1;stroke-dashoffset:0"/></g></g></svg>